<?xml version="1.0" encoding="utf-8"?>
<!-- Generator: Adobe Illustrator 27.1.1, SVG Export Plug-In . SVG Version: 6.00 Build 0)  -->
<svg version="1.1" id="Layer_1" xmlns="http://www.w3.org/2000/svg" xmlns:xlink="http://www.w3.org/1999/xlink" x="0px" y="0px"
	 viewBox="0 0 103 92" style="enable-background:new 0 0 103 92;" xml:space="preserve">
<style type="text/css">
	.st0{fill:#FEAB01;}
</style>
<path class="st0" d="M80.6,44l0.6,0.2c-0.5-0.5-1.7-1.1-3.4-1.6c-3.7-1.2-6-2.6-5.3-1.9c-4.1-3-5.6-4.3-6-5.9c0,0.1,0.2,0.2,0.2,0.3
	c-0.6-1.2-2.1-2.7-2.3-5h0.1c-0.2-0.7-0.5-1.3-0.6-2c0.2-0.4,0.2,0.8,0.4,0.8c-1-4.1-0.9-3-0.4-1.3c0.3-2-0.9-7-1.1-7.7
	c0.5,1.7,0.2,0.3,0.4,0.4c0-0.5,0-1.3,0.1-1c-0.4-1.7,0.1-3.2-1.4-9.5c-0.4-1.2-3.5-2.8-5.2-1.2c-0.9,0.4-2.8,4.1-3.1,4.5l0.2-0.2
	c-0.2,0.8-0.4,0.6-0.7,1.3c0.1,0.1,1.3-2.6-1.3,3.8c-0.6,1.5-1.2,2.6-2,3.9c-1.3,2.5-2.9,5.2-4.4,7.6c-1.1,1.7-0.1,1.5-1.7,3.4
	c0.1-0.3,0.2-0.6,0.3-0.9c-2.7,4.8-4.7,6-7.8,7.5c0.2-0.2,0.3-0.3,0.4-0.4c-0.1,0-5.3,2-5.3,2.1c-1.1,0.3-0.6,0-1.1,0.1
	C27.3,42,25.8,42.9,25,43l0.4-0.3c-1.9,0.8-2.8,1.9-2.2,1.7c-1,1-0.9,1.3-1.5,2.7c0.1,0.4,0,2.1,0.7,2.3c-0.5,0,0.4,1.9,2.6,2.7
	c-0.6-0.2,0.8,0.6,0.3,0.4c1.9,0.8,4.1,1.4,4,1.2c3.4,1.7,7.8,2.2,8.7,3.3c2.9,0.9,5.3,2.3,6.4,3.7c-0.3,0-1.7-1.7-1.9-1.2
	c4,2.3,5.3,8,8,15c-0.3-1.6,1.3,2.8,1.8,2.6c-0.6-0.2,0.4,2.4,2.9,3.5c0,0.1,0.1,0,0.4,0.1c0.7,0.1,0.6,0.1,1.4,0c0,0,0,0.1-0.1,0.1
	c1.9-0.5,3.5-3,4.2-4.9c-0.2,1.7,0.7-1.6,0.8-1c0.2-0.9,0.5-1.9,0.7-2.8L62.1,73c1.3-4.8-0.3,0.4,1.3-4.5c0.6-2,0.5-3.2,0.8-4.2
	c-0.1,0.2,0.4-1.2,0.7-1.6c0.1-0.5,0.2-1.1,0.6-1.9c0.2-0.1,0.2,0.2,0.3,0.3c-0.1-1.7,2.8-5.3,5.7-6.3c3.7-1.2-0.5,0.4-0.5,0.5
	c0.1,0,6.1-1.6,7.9-2.4c1.6-0.7,2.7-1.4,3.8-2.7l-0.3,0.3c-0.3-0.4,1.3-1,1.2-2.4c0,0.4,0.1,0.4,0.1,0.4
	C84.2,46.9,82.2,44.9,80.6,44L80.6,44z M67.4,36.8L67.4,36.8L67.4,36.8L67.4,36.8z M63.5,50.1c-0.7,0.9,0.7-0.6-1.5,1.6
	c-3.5,3.7-5.5,11.5-5.4,11.1c-0.1-0.1-0.1-0.2-0.2-0.1c0,0.6-0.9,3.3-1.1,1v-0.1l0,0l0,0c0-0.3-0.4,0.3-0.4-0.2H55
	c-0.3-1.6-3.3-6.4-4.6-8.2c-0.2-0.1-3.5-3.4-4-3c-1.2-0.9-5.7-4.1-6.9-3.5c0-0.5-0.6-0.6-1.2-0.5c0.1,0,0.1-0.1,0.1-0.1
	S38.2,48,38.3,48c1-0.5,3.9-0.5,8.5-5c-0.1-0.3,3.2-4,5-6.7c0.7-1.3,0-0.4,0.2-1.1c0.3,0,1.3-1.8,0.8-0.6c1.3-2.3,1.6-2.8,3.1-5.9
	c-0.2,0.2-0.5,0.6-0.4,0.3c0.7-1.7,0.5-0.4,0.8,0c0,0.8,0.6,2.9,0.3,2.8c0.2,0.3,0.7,1.6,0.8,2.2c-0.9-1.3,0.9,3.1,0.5,3
	c0.7,1,1.8,3.8,4.1,5.7c0,0-0.3-0.2-0.5-0.5c0.8,1,1,1.2,1.3,1.7c0.3-0.1,1.7,1,2.6,1.5c1,1.1-0.9-0.2-0.6,0.3
	c0-0.3,2.2,1.2,1.7,0.8C67,47,67,47.2,67.4,47C66.5,49.2,65.2,48.3,63.5,50.1z"/>
</svg>
